<mxfile host="Electron" modified="2023-04-20T09:01:28.519Z" agent="Mozilla/5.0 (X11; Linux x86_64) AppleWebKit/537.36 (KHTML, like Gecko) draw.io/21.1.2 Chrome/106.0.5249.199 Electron/21.4.3 Safari/537.36" etag="ckk2Zm7adoh1uPBC_k8v" version="21.1.2" type="device">
  <diagram name="Page-1" id="0iUFqFaKCBa03qFv-6yp">
    <mxGraphModel dx="658" dy="339" grid="1" gridSize="10" guides="1" tooltips="1" connect="1" arrows="1" fold="1" page="1" pageScale="1" pageWidth="1169" pageHeight="827" math="1" shadow="0">
      <root>
        <mxCell id="0" />
        <mxCell id="1" style="" parent="0" />
        <mxCell id="nDCd7p5NNrpLwYVH-uoT-14" value="" style="ellipse;whiteSpace=wrap;html=1;fillColor=none;strokeWidth=2;strokeColor=#808080;opacity=60;" parent="1" vertex="1">
          <mxGeometry x="500" y="522.5" width="54" height="75" as="geometry" />
        </mxCell>
        <mxCell id="nDCd7p5NNrpLwYVH-uoT-36" value="" style="ellipse;whiteSpace=wrap;html=1;fillColor=none;strokeWidth=2;strokeColor=#808080;opacity=60;" parent="1" vertex="1">
          <mxGeometry x="612" y="435" width="50" height="70" as="geometry" />
        </mxCell>
        <mxCell id="nDCd7p5NNrpLwYVH-uoT-37" value="" style="ellipse;whiteSpace=wrap;html=1;fillColor=none;strokeWidth=2;strokeColor=#808080;opacity=60;" parent="1" vertex="1">
          <mxGeometry x="713" y="335" width="50" height="70" as="geometry" />
        </mxCell>
        <mxCell id="nDCd7p5NNrpLwYVH-uoT-1" value="" style="shape=waypoint;sketch=0;size=6;pointerEvents=1;points=[];fillColor=none;resizable=0;rotatable=0;perimeter=centerPerimeter;snapToPoint=1;" parent="1" vertex="1">
          <mxGeometry x="517" y="460" width="20" height="20" as="geometry" />
        </mxCell>
        <mxCell id="nDCd7p5NNrpLwYVH-uoT-2" value="" style="endArrow=none;html=1;rounded=0;exitX=0.755;exitY=-0.057;exitDx=0;exitDy=0;exitPerimeter=0;entryX=0.112;entryY=1.038;entryDx=0;entryDy=0;entryPerimeter=0;strokeWidth=2;" parent="1" source="nDCd7p5NNrpLwYVH-uoT-1" target="nDCd7p5NNrpLwYVH-uoT-6" edge="1">
          <mxGeometry width="50" height="50" relative="1" as="geometry">
            <mxPoint x="437" y="460" as="sourcePoint" />
            <mxPoint x="607" y="390" as="targetPoint" />
          </mxGeometry>
        </mxCell>
        <mxCell id="nDCd7p5NNrpLwYVH-uoT-3" value="k&lt;sub&gt;4&lt;/sub&gt;" style="edgeLabel;html=1;align=center;verticalAlign=middle;resizable=0;points=[];labelBackgroundColor=none;fontFamily=Georgia;fontStyle=2" parent="nDCd7p5NNrpLwYVH-uoT-2" vertex="1" connectable="0">
          <mxGeometry x="-0.2195" y="-2" relative="1" as="geometry">
            <mxPoint x="-2" y="14" as="offset" />
          </mxGeometry>
        </mxCell>
        <mxCell id="nDCd7p5NNrpLwYVH-uoT-4" value="" style="endArrow=none;html=1;rounded=0;entryX=-0.031;entryY=0.348;entryDx=0;entryDy=0;entryPerimeter=0;strokeWidth=2;exitX=0.557;exitY=0.399;exitDx=0;exitDy=0;exitPerimeter=0;" parent="1" source="nDCd7p5NNrpLwYVH-uoT-46" target="nDCd7p5NNrpLwYVH-uoT-1" edge="1">
          <mxGeometry width="50" height="50" relative="1" as="geometry">
            <mxPoint x="527" y="560" as="sourcePoint" />
            <mxPoint x="487" y="410" as="targetPoint" />
          </mxGeometry>
        </mxCell>
        <mxCell id="nDCd7p5NNrpLwYVH-uoT-5" value="k&lt;sub&gt;5&lt;/sub&gt;" style="edgeLabel;html=1;align=center;verticalAlign=middle;resizable=0;points=[];labelBackgroundColor=none;fontFamily=Georgia;fontStyle=2" parent="nDCd7p5NNrpLwYVH-uoT-4" vertex="1" connectable="0">
          <mxGeometry x="0.2474" y="-1" relative="1" as="geometry">
            <mxPoint x="8" as="offset" />
          </mxGeometry>
        </mxCell>
        <mxCell id="nDCd7p5NNrpLwYVH-uoT-6" value="" style="shape=waypoint;sketch=0;size=6;pointerEvents=1;points=[];fillColor=none;resizable=0;rotatable=0;perimeter=centerPerimeter;snapToPoint=1;" parent="1" vertex="1">
          <mxGeometry x="637" y="340" width="20" height="20" as="geometry" />
        </mxCell>
        <mxCell id="nDCd7p5NNrpLwYVH-uoT-7" value="" style="endArrow=none;html=1;rounded=0;entryX=-0.031;entryY=0.467;entryDx=0;entryDy=0;entryPerimeter=0;exitX=1.112;exitY=0.729;exitDx=0;exitDy=0;exitPerimeter=0;strokeWidth=2;" parent="1" source="nDCd7p5NNrpLwYVH-uoT-9" target="nDCd7p5NNrpLwYVH-uoT-6" edge="1">
          <mxGeometry width="50" height="50" relative="1" as="geometry">
            <mxPoint x="487" y="350" as="sourcePoint" />
            <mxPoint x="507" y="390" as="targetPoint" />
          </mxGeometry>
        </mxCell>
        <mxCell id="nDCd7p5NNrpLwYVH-uoT-8" value="k&lt;sub&gt;3&lt;/sub&gt;" style="edgeLabel;html=1;align=center;verticalAlign=middle;resizable=0;points=[];labelBackgroundColor=none;fontFamily=Georgia;fontStyle=2" parent="nDCd7p5NNrpLwYVH-uoT-7" vertex="1" connectable="0">
          <mxGeometry x="0.1852" y="-1" relative="1" as="geometry">
            <mxPoint y="-11" as="offset" />
          </mxGeometry>
        </mxCell>
        <mxCell id="nDCd7p5NNrpLwYVH-uoT-9" value="" style="shape=waypoint;sketch=0;size=6;pointerEvents=1;points=[];fillColor=none;resizable=0;rotatable=0;perimeter=centerPerimeter;snapToPoint=1;" parent="1" vertex="1">
          <mxGeometry x="518" y="340" width="20" height="20" as="geometry" />
        </mxCell>
        <mxCell id="nDCd7p5NNrpLwYVH-uoT-12" value="" style="endArrow=none;html=1;rounded=0;entryX=1.006;entryY=0.756;entryDx=0;entryDy=0;entryPerimeter=0;exitX=0.6;exitY=0.67;exitDx=0;exitDy=0;exitPerimeter=0;dashed=1;strokeWidth=2;dashPattern=1 1;" parent="1" source="nDCd7p5NNrpLwYVH-uoT-20" target="nDCd7p5NNrpLwYVH-uoT-9" edge="1">
          <mxGeometry width="50" height="50" relative="1" as="geometry">
            <mxPoint x="568" y="390" as="sourcePoint" />
            <mxPoint x="568" y="310" as="targetPoint" />
          </mxGeometry>
        </mxCell>
        <mxCell id="nDCd7p5NNrpLwYVH-uoT-13" value="k&lt;sub&gt;1&lt;/sub&gt;" style="edgeLabel;html=1;align=center;verticalAlign=middle;resizable=0;points=[];labelBackgroundColor=none;fontFamily=Georgia;fontStyle=2" parent="nDCd7p5NNrpLwYVH-uoT-12" vertex="1" connectable="0">
          <mxGeometry x="0.2994" y="-2" relative="1" as="geometry">
            <mxPoint x="-10" y="8" as="offset" />
          </mxGeometry>
        </mxCell>
        <mxCell id="nDCd7p5NNrpLwYVH-uoT-15" value="" style="shape=waypoint;sketch=0;size=6;pointerEvents=1;points=[];fillColor=none;resizable=0;rotatable=0;perimeter=centerPerimeter;snapToPoint=1;" parent="1" vertex="1">
          <mxGeometry x="677" y="360" width="20" height="20" as="geometry" />
        </mxCell>
        <mxCell id="nDCd7p5NNrpLwYVH-uoT-16" value="" style="endArrow=classicThin;html=1;rounded=0;exitX=0.08;exitY=1.15;exitDx=0;exitDy=0;exitPerimeter=0;endFill=1;strokeColor=#FF0000;" parent="1" source="nDCd7p5NNrpLwYVH-uoT-20" edge="1">
          <mxGeometry width="50" height="50" relative="1" as="geometry">
            <mxPoint x="498" y="412.5" as="sourcePoint" />
            <mxPoint x="513" y="417.5" as="targetPoint" />
          </mxGeometry>
        </mxCell>
        <mxCell id="nDCd7p5NNrpLwYVH-uoT-17" value="R" style="edgeLabel;html=1;align=center;verticalAlign=middle;resizable=0;points=[];labelBackgroundColor=none;fontFamily=Georgia;fontSize=15;fontStyle=0" parent="nDCd7p5NNrpLwYVH-uoT-16" vertex="1" connectable="0">
          <mxGeometry x="0.522" y="2" relative="1" as="geometry">
            <mxPoint x="-4" y="-16" as="offset" />
          </mxGeometry>
        </mxCell>
        <mxCell id="nDCd7p5NNrpLwYVH-uoT-18" value="" style="endArrow=classicThin;html=1;rounded=0;exitX=0.96;exitY=0.59;exitDx=0;exitDy=0;exitPerimeter=0;endFill=1;strokeColor=#00FF00;" parent="1" source="nDCd7p5NNrpLwYVH-uoT-20" edge="1">
          <mxGeometry width="50" height="50" relative="1" as="geometry">
            <mxPoint x="538" y="412.5" as="sourcePoint" />
            <mxPoint x="548" y="402.5" as="targetPoint" />
          </mxGeometry>
        </mxCell>
        <mxCell id="nDCd7p5NNrpLwYVH-uoT-19" value="" style="endArrow=classicThin;html=1;rounded=0;exitX=0.46;exitY=1.07;exitDx=0;exitDy=0;exitPerimeter=0;endFill=1;strokeColor=#0000FF;strokeWidth=1;opacity=60;" parent="1" source="nDCd7p5NNrpLwYVH-uoT-20" edge="1">
          <mxGeometry width="50" height="50" relative="1" as="geometry">
            <mxPoint x="538" y="412.5" as="sourcePoint" />
            <mxPoint x="528" y="382.5" as="targetPoint" />
          </mxGeometry>
        </mxCell>
        <mxCell id="nDCd7p5NNrpLwYVH-uoT-20" value="" style="shape=waypoint;sketch=0;size=6;pointerEvents=1;points=[];fillColor=none;resizable=0;rotatable=0;perimeter=centerPerimeter;snapToPoint=1;" parent="1" vertex="1">
          <mxGeometry x="518" y="392.5" width="20" height="20" as="geometry" />
        </mxCell>
        <mxCell id="nDCd7p5NNrpLwYVH-uoT-21" value="" style="endArrow=classicThin;html=1;rounded=0;exitX=0.183;exitY=0.019;exitDx=0;exitDy=0;exitPerimeter=0;endFill=1;strokeColor=#0000FF;strokeWidth=1;" parent="1" source="nDCd7p5NNrpLwYVH-uoT-9" edge="1">
          <mxGeometry width="50" height="50" relative="1" as="geometry">
            <mxPoint x="498" y="300" as="sourcePoint" />
            <mxPoint x="548" y="350" as="targetPoint" />
          </mxGeometry>
        </mxCell>
        <mxCell id="nDCd7p5NNrpLwYVH-uoT-22" value="" style="endArrow=classicThin;html=1;rounded=0;exitX=0.392;exitY=0.504;exitDx=0;exitDy=0;exitPerimeter=0;endFill=1;strokeColor=#00FF00;opacity=60;" parent="1" source="nDCd7p5NNrpLwYVH-uoT-9" edge="1">
          <mxGeometry width="50" height="50" relative="1" as="geometry">
            <mxPoint x="498" y="300" as="sourcePoint" />
            <mxPoint x="528" y="370" as="targetPoint" />
          </mxGeometry>
        </mxCell>
        <mxCell id="nDCd7p5NNrpLwYVH-uoT-23" value="" style="endArrow=classicThin;html=1;rounded=0;exitX=0.075;exitY=0.388;exitDx=0;exitDy=0;exitPerimeter=0;endFill=1;strokeColor=#FF0000;" parent="1" source="nDCd7p5NNrpLwYVH-uoT-9" edge="1">
          <mxGeometry width="50" height="50" relative="1" as="geometry">
            <mxPoint x="512" y="346" as="sourcePoint" />
            <mxPoint x="514" y="364" as="targetPoint" />
          </mxGeometry>
        </mxCell>
        <mxCell id="nDCd7p5NNrpLwYVH-uoT-24" value="D" style="edgeLabel;html=1;align=center;verticalAlign=middle;resizable=0;points=[];labelBackgroundColor=none;fontFamily=Georgia;" parent="nDCd7p5NNrpLwYVH-uoT-23" vertex="1" connectable="0">
          <mxGeometry x="0.4264" y="1" relative="1" as="geometry">
            <mxPoint x="-1" y="-15" as="offset" />
          </mxGeometry>
        </mxCell>
        <mxCell id="nDCd7p5NNrpLwYVH-uoT-25" value="" style="endArrow=none;html=1;rounded=0;entryX=0.995;entryY=0.574;entryDx=0;entryDy=0;entryPerimeter=0;strokeWidth=2;exitX=0.466;exitY=1.022;exitDx=0;exitDy=0;exitPerimeter=0;" parent="1" source="nDCd7p5NNrpLwYVH-uoT-35" target="nDCd7p5NNrpLwYVH-uoT-15" edge="1">
          <mxGeometry width="50" height="50" relative="1" as="geometry">
            <mxPoint x="737" y="320" as="sourcePoint" />
            <mxPoint x="707" y="380" as="targetPoint" />
            <Array as="points" />
          </mxGeometry>
        </mxCell>
        <mxCell id="nDCd7p5NNrpLwYVH-uoT-26" value="k&lt;sub&gt;7&lt;/sub&gt;" style="edgeLabel;html=1;align=center;verticalAlign=middle;resizable=0;points=[];labelBackgroundColor=none;fontFamily=Georgia;fontStyle=2" parent="nDCd7p5NNrpLwYVH-uoT-25" vertex="1" connectable="0">
          <mxGeometry x="0.3107" relative="1" as="geometry">
            <mxPoint x="-2" y="-12" as="offset" />
          </mxGeometry>
        </mxCell>
        <mxCell id="nDCd7p5NNrpLwYVH-uoT-27" value="" style="shape=waypoint;sketch=0;size=6;pointerEvents=1;points=[];fillColor=none;resizable=0;rotatable=0;perimeter=centerPerimeter;snapToPoint=1;" parent="1" vertex="1">
          <mxGeometry x="627" y="410" width="20" height="20" as="geometry" />
        </mxCell>
        <mxCell id="nDCd7p5NNrpLwYVH-uoT-28" value="" style="endArrow=none;html=1;rounded=0;entryX=0.16;entryY=1.133;entryDx=0;entryDy=0;entryPerimeter=0;strokeWidth=2;exitX=0.943;exitY=0.987;exitDx=0;exitDy=0;exitPerimeter=0;" parent="1" source="nDCd7p5NNrpLwYVH-uoT-27" target="nDCd7p5NNrpLwYVH-uoT-15" edge="1">
          <mxGeometry width="50" height="50" relative="1" as="geometry">
            <mxPoint x="627" y="450" as="sourcePoint" />
            <mxPoint x="677" y="400" as="targetPoint" />
          </mxGeometry>
        </mxCell>
        <mxCell id="nDCd7p5NNrpLwYVH-uoT-29" value="k&lt;font size=&quot;1&quot;&gt;&lt;sub&gt;7&lt;/sub&gt;&lt;/font&gt;" style="edgeLabel;html=1;align=center;verticalAlign=middle;resizable=0;points=[];labelBackgroundColor=none;fontFamily=Georgia;fontStyle=2" parent="nDCd7p5NNrpLwYVH-uoT-28" vertex="1" connectable="0">
          <mxGeometry x="0.1866" relative="1" as="geometry">
            <mxPoint x="1" y="13" as="offset" />
          </mxGeometry>
        </mxCell>
        <mxCell id="nDCd7p5NNrpLwYVH-uoT-30" value="" style="shape=waypoint;sketch=0;size=6;pointerEvents=1;points=[];fillColor=none;resizable=0;rotatable=0;perimeter=centerPerimeter;snapToPoint=1;strokeColor=#000000;" parent="1" vertex="1">
          <mxGeometry x="657" y="340" width="20" height="20" as="geometry" />
        </mxCell>
        <mxCell id="nDCd7p5NNrpLwYVH-uoT-31" style="edgeStyle=orthogonalEdgeStyle;rounded=0;orthogonalLoop=1;jettySize=auto;html=1;endArrow=none;endFill=0;strokeWidth=2;entryX=0.052;entryY=0.509;entryDx=0;entryDy=0;entryPerimeter=0;fontColor=#4D4D4D;strokeColor=#808080;" parent="1" source="nDCd7p5NNrpLwYVH-uoT-6" target="nDCd7p5NNrpLwYVH-uoT-30" edge="1">
          <mxGeometry relative="1" as="geometry">
            <mxPoint x="667" y="350" as="targetPoint" />
          </mxGeometry>
        </mxCell>
        <mxCell id="nDCd7p5NNrpLwYVH-uoT-32" value="`bar k_3`" style="edgeLabel;html=1;align=center;verticalAlign=middle;resizable=0;points=[];fontColor=#808080;labelBackgroundColor=none;fontFamily=Georgia;fontStyle=2" parent="nDCd7p5NNrpLwYVH-uoT-31" vertex="1" connectable="0">
          <mxGeometry x="0.126" relative="1" as="geometry">
            <mxPoint x="-2" y="-10" as="offset" />
          </mxGeometry>
        </mxCell>
        <mxCell id="nDCd7p5NNrpLwYVH-uoT-33" value="" style="endArrow=none;html=1;rounded=0;exitX=0.064;exitY=0.681;exitDx=0;exitDy=0;exitPerimeter=0;strokeWidth=2;entryX=0.727;entryY=0.981;entryDx=0;entryDy=0;entryPerimeter=0;strokeColor=#003366;" parent="1" source="nDCd7p5NNrpLwYVH-uoT-15" target="nDCd7p5NNrpLwYVH-uoT-30" edge="1">
          <mxGeometry width="50" height="50" relative="1" as="geometry">
            <mxPoint x="687" y="390" as="sourcePoint" />
            <mxPoint x="667" y="370" as="targetPoint" />
          </mxGeometry>
        </mxCell>
        <mxCell id="nDCd7p5NNrpLwYVH-uoT-34" value="&lt;font color=&quot;#003366&quot;&gt;k&lt;sub&gt;6&lt;/sub&gt;&lt;/font&gt;" style="edgeLabel;html=1;align=center;verticalAlign=middle;resizable=0;points=[];labelBackgroundColor=none;fontFamily=Georgia;fontStyle=2" parent="nDCd7p5NNrpLwYVH-uoT-33" vertex="1" connectable="0">
          <mxGeometry x="-0.019" y="-1" relative="1" as="geometry">
            <mxPoint x="2" y="-8" as="offset" />
          </mxGeometry>
        </mxCell>
        <mxCell id="nDCd7p5NNrpLwYVH-uoT-35" value="" style="shape=waypoint;sketch=0;size=6;pointerEvents=1;points=[];fillColor=none;resizable=0;rotatable=0;perimeter=centerPerimeter;snapToPoint=1;" parent="1" vertex="1">
          <mxGeometry x="727" y="310" width="20" height="20" as="geometry" />
        </mxCell>
        <mxCell id="nDCd7p5NNrpLwYVH-uoT-38" value="" style="endArrow=classicThin;html=1;rounded=0;exitX=-0.019;exitY=0.227;exitDx=0;exitDy=0;exitPerimeter=0;endFill=1;strokeColor=#FF0000;" parent="1" source="nDCd7p5NNrpLwYVH-uoT-1" edge="1">
          <mxGeometry width="50" height="50" relative="1" as="geometry">
            <mxPoint x="512" y="460.5" as="sourcePoint" />
            <mxPoint x="512" y="485" as="targetPoint" />
          </mxGeometry>
        </mxCell>
        <mxCell id="nDCd7p5NNrpLwYVH-uoT-39" value="" style="endArrow=classicThin;html=1;rounded=0;endFill=1;strokeColor=#00FF00;exitX=1.041;exitY=0.604;exitDx=0;exitDy=0;exitPerimeter=0;" parent="1" source="nDCd7p5NNrpLwYVH-uoT-1" edge="1">
          <mxGeometry width="50" height="50" relative="1" as="geometry">
            <mxPoint x="547" y="469.95" as="sourcePoint" />
            <mxPoint x="547" y="470" as="targetPoint" />
          </mxGeometry>
        </mxCell>
        <mxCell id="nDCd7p5NNrpLwYVH-uoT-40" value="" style="endArrow=classicThin;html=1;rounded=0;exitX=0.337;exitY=0.049;exitDx=0;exitDy=0;exitPerimeter=0;endFill=1;strokeColor=#0000FF;strokeWidth=1;" parent="1" source="nDCd7p5NNrpLwYVH-uoT-1" edge="1">
          <mxGeometry width="50" height="50" relative="1" as="geometry">
            <mxPoint x="512" y="460.5" as="sourcePoint" />
            <mxPoint x="527" y="450" as="targetPoint" />
          </mxGeometry>
        </mxCell>
        <mxCell id="nDCd7p5NNrpLwYVH-uoT-41" value="S&lt;sub&gt;1&lt;/sub&gt;" style="edgeLabel;html=1;align=center;verticalAlign=middle;resizable=0;points=[];labelBackgroundColor=none;fontFamily=Georgia;" parent="nDCd7p5NNrpLwYVH-uoT-40" vertex="1" connectable="0">
          <mxGeometry x="0.509" y="-2" relative="1" as="geometry">
            <mxPoint x="-13" y="10" as="offset" />
          </mxGeometry>
        </mxCell>
        <mxCell id="nDCd7p5NNrpLwYVH-uoT-42" value="" style="endArrow=classicThin;html=1;rounded=0;exitX=0.963;exitY=0.684;exitDx=0;exitDy=0;exitPerimeter=0;endFill=1;strokeColor=#FF0000;" parent="1" source="nDCd7p5NNrpLwYVH-uoT-46" edge="1">
          <mxGeometry width="50" height="50" relative="1" as="geometry">
            <mxPoint x="582" y="570" as="sourcePoint" />
            <mxPoint x="512" y="575" as="targetPoint" />
          </mxGeometry>
        </mxCell>
        <mxCell id="nDCd7p5NNrpLwYVH-uoT-43" value="" style="endArrow=classicThin;html=1;rounded=0;endFill=1;strokeColor=#00FF00;exitX=0.995;exitY=0.532;exitDx=0;exitDy=0;exitPerimeter=0;" parent="1" source="nDCd7p5NNrpLwYVH-uoT-46" edge="1">
          <mxGeometry width="50" height="50" relative="1" as="geometry">
            <mxPoint x="582" y="570" as="sourcePoint" />
            <mxPoint x="547" y="560" as="targetPoint" />
          </mxGeometry>
        </mxCell>
        <mxCell id="nDCd7p5NNrpLwYVH-uoT-44" value="A&lt;sub&gt;1&lt;/sub&gt;" style="edgeLabel;html=1;align=center;verticalAlign=middle;resizable=0;points=[];labelBackgroundColor=none;fontFamily=Georgia;" parent="nDCd7p5NNrpLwYVH-uoT-43" vertex="1" connectable="0">
          <mxGeometry x="0.5909" relative="1" as="geometry">
            <mxPoint x="-13" y="13" as="offset" />
          </mxGeometry>
        </mxCell>
        <mxCell id="nDCd7p5NNrpLwYVH-uoT-45" value="" style="endArrow=classicThin;html=1;rounded=0;exitX=0.5;exitY=0.5;exitDx=0;exitDy=0;exitPerimeter=0;endFill=1;strokeColor=#0000FF;strokeWidth=1;" parent="1" source="nDCd7p5NNrpLwYVH-uoT-46" edge="1">
          <mxGeometry width="50" height="50" relative="1" as="geometry">
            <mxPoint x="582" y="570" as="sourcePoint" />
            <mxPoint x="527" y="540" as="targetPoint" />
          </mxGeometry>
        </mxCell>
        <mxCell id="nDCd7p5NNrpLwYVH-uoT-46" value="" style="shape=waypoint;sketch=0;size=6;pointerEvents=1;points=[];fillColor=none;resizable=0;rotatable=0;perimeter=centerPerimeter;snapToPoint=1;" parent="1" vertex="1">
          <mxGeometry x="517" y="550" width="20" height="20" as="geometry" />
        </mxCell>
        <mxCell id="nDCd7p5NNrpLwYVH-uoT-47" value="" style="endArrow=classicThin;html=1;rounded=0;endFill=1;strokeColor=#00FF00;exitX=0.995;exitY=0.532;exitDx=0;exitDy=0;exitPerimeter=0;" parent="1" source="nDCd7p5NNrpLwYVH-uoT-49" edge="1">
          <mxGeometry width="50" height="50" relative="1" as="geometry">
            <mxPoint x="707" y="490" as="sourcePoint" />
            <mxPoint x="657" y="470" as="targetPoint" />
            <Array as="points" />
          </mxGeometry>
        </mxCell>
        <mxCell id="nDCd7p5NNrpLwYVH-uoT-48" value="A&lt;sub&gt;3&lt;/sub&gt;" style="edgeLabel;html=1;align=center;verticalAlign=middle;resizable=0;points=[];labelBackgroundColor=none;fontFamily=Georgia;" parent="nDCd7p5NNrpLwYVH-uoT-47" vertex="1" connectable="0">
          <mxGeometry x="0.5303" y="-1" relative="1" as="geometry">
            <mxPoint x="-10" y="12" as="offset" />
          </mxGeometry>
        </mxCell>
        <mxCell id="nDCd7p5NNrpLwYVH-uoT-49" value="" style="shape=waypoint;sketch=0;size=6;pointerEvents=1;points=[];fillColor=none;resizable=0;rotatable=0;perimeter=centerPerimeter;snapToPoint=1;" parent="1" vertex="1">
          <mxGeometry x="627" y="460" width="20" height="20" as="geometry" />
        </mxCell>
        <mxCell id="nDCd7p5NNrpLwYVH-uoT-50" value="" style="endArrow=none;html=1;rounded=0;entryX=0.616;entryY=0.948;entryDx=0;entryDy=0;entryPerimeter=0;strokeWidth=2;exitX=0.046;exitY=0.154;exitDx=0;exitDy=0;exitPerimeter=0;" parent="1" source="nDCd7p5NNrpLwYVH-uoT-49" target="nDCd7p5NNrpLwYVH-uoT-27" edge="1">
          <mxGeometry width="50" height="50" relative="1" as="geometry">
            <mxPoint x="637" y="470" as="sourcePoint" />
            <mxPoint x="627" y="460" as="targetPoint" />
          </mxGeometry>
        </mxCell>
        <mxCell id="nDCd7p5NNrpLwYVH-uoT-51" value="k&lt;sub&gt;8&lt;/sub&gt;" style="edgeLabel;html=1;align=center;verticalAlign=middle;resizable=0;points=[];labelBackgroundColor=none;fontFamily=Georgia;fontStyle=2" parent="nDCd7p5NNrpLwYVH-uoT-50" vertex="1" connectable="0">
          <mxGeometry x="0.4752" y="-1" relative="1" as="geometry">
            <mxPoint x="8" y="-1" as="offset" />
          </mxGeometry>
        </mxCell>
        <mxCell id="nDCd7p5NNrpLwYVH-uoT-52" value="" style="endArrow=classicThin;html=1;rounded=0;exitX=0.5;exitY=0.5;exitDx=0;exitDy=0;exitPerimeter=0;endFill=1;strokeColor=#0000FF;strokeWidth=1;" parent="1" source="nDCd7p5NNrpLwYVH-uoT-49" edge="1">
          <mxGeometry width="50" height="50" relative="1" as="geometry">
            <mxPoint x="707" y="490" as="sourcePoint" />
            <mxPoint x="637" y="450" as="targetPoint" />
          </mxGeometry>
        </mxCell>
        <mxCell id="nDCd7p5NNrpLwYVH-uoT-53" value="" style="endArrow=classicThin;html=1;rounded=0;exitX=0.963;exitY=0.684;exitDx=0;exitDy=0;exitPerimeter=0;endFill=1;strokeColor=#FF0000;" parent="1" source="nDCd7p5NNrpLwYVH-uoT-49" edge="1">
          <mxGeometry width="50" height="50" relative="1" as="geometry">
            <mxPoint x="707" y="490" as="sourcePoint" />
            <mxPoint x="623" y="484" as="targetPoint" />
          </mxGeometry>
        </mxCell>
        <mxCell id="nDCd7p5NNrpLwYVH-uoT-54" value="" style="endArrow=classicThin;html=1;rounded=0;endFill=1;strokeColor=#00FF00;exitX=0.995;exitY=0.532;exitDx=0;exitDy=0;exitPerimeter=0;" parent="1" source="nDCd7p5NNrpLwYVH-uoT-56" edge="1">
          <mxGeometry width="50" height="50" relative="1" as="geometry">
            <mxPoint x="821" y="395.5" as="sourcePoint" />
            <mxPoint x="757" y="370" as="targetPoint" />
            <Array as="points" />
          </mxGeometry>
        </mxCell>
        <mxCell id="nDCd7p5NNrpLwYVH-uoT-55" value="A&lt;sub&gt;5&lt;/sub&gt;" style="edgeLabel;html=1;align=center;verticalAlign=middle;resizable=0;points=[];labelBackgroundColor=none;fontFamily=Georgia;" parent="nDCd7p5NNrpLwYVH-uoT-54" vertex="1" connectable="0">
          <mxGeometry x="0.6818" relative="1" as="geometry">
            <mxPoint x="-13" y="13" as="offset" />
          </mxGeometry>
        </mxCell>
        <mxCell id="nDCd7p5NNrpLwYVH-uoT-56" value="" style="shape=waypoint;sketch=0;size=6;pointerEvents=1;points=[];fillColor=none;resizable=0;rotatable=0;perimeter=centerPerimeter;snapToPoint=1;" parent="1" vertex="1">
          <mxGeometry x="727" y="360" width="20" height="20" as="geometry" />
        </mxCell>
        <mxCell id="nDCd7p5NNrpLwYVH-uoT-57" value="" style="endArrow=none;html=1;rounded=0;entryX=0.385;entryY=0.952;entryDx=0;entryDy=0;entryPerimeter=0;strokeWidth=2;exitX=0.497;exitY=0.028;exitDx=0;exitDy=0;exitPerimeter=0;" parent="1" source="nDCd7p5NNrpLwYVH-uoT-56" target="nDCd7p5NNrpLwYVH-uoT-35" edge="1">
          <mxGeometry width="50" height="50" relative="1" as="geometry">
            <mxPoint x="737" y="370" as="sourcePoint" />
            <mxPoint x="647" y="430" as="targetPoint" />
          </mxGeometry>
        </mxCell>
        <mxCell id="nDCd7p5NNrpLwYVH-uoT-58" value="k&lt;sub style=&quot;border-color: var(--border-color);&quot;&gt;8&lt;/sub&gt;" style="edgeLabel;html=1;align=center;verticalAlign=middle;resizable=0;points=[];labelBackgroundColor=none;fontFamily=Georgia;fontStyle=2" parent="nDCd7p5NNrpLwYVH-uoT-57" vertex="1" connectable="0">
          <mxGeometry x="0.4555" y="1" relative="1" as="geometry">
            <mxPoint x="10" y="-2" as="offset" />
          </mxGeometry>
        </mxCell>
        <mxCell id="nDCd7p5NNrpLwYVH-uoT-59" value="" style="endArrow=classicThin;html=1;rounded=0;exitX=0.5;exitY=0.5;exitDx=0;exitDy=0;exitPerimeter=0;endFill=1;strokeColor=#0000FF;strokeWidth=1;" parent="1" source="nDCd7p5NNrpLwYVH-uoT-56" edge="1">
          <mxGeometry width="50" height="50" relative="1" as="geometry">
            <mxPoint x="821" y="395.5" as="sourcePoint" />
            <mxPoint x="737" y="350" as="targetPoint" />
          </mxGeometry>
        </mxCell>
        <mxCell id="nDCd7p5NNrpLwYVH-uoT-60" value="" style="endArrow=classicThin;html=1;rounded=0;exitX=0.963;exitY=0.684;exitDx=0;exitDy=0;exitPerimeter=0;endFill=1;strokeColor=#FF0000;" parent="1" source="nDCd7p5NNrpLwYVH-uoT-56" edge="1">
          <mxGeometry width="50" height="50" relative="1" as="geometry">
            <mxPoint x="821" y="395.5" as="sourcePoint" />
            <mxPoint x="723" y="384" as="targetPoint" />
          </mxGeometry>
        </mxCell>
        <mxCell id="nDCd7p5NNrpLwYVH-uoT-61" value="" style="curved=1;endArrow=none;html=1;rounded=0;startArrow=classicThin;startFill=1;endFill=0;strokeColor=#A680B8;fontColor=#7F00FF;" parent="1" edge="1">
          <mxGeometry width="50" height="50" relative="1" as="geometry">
            <mxPoint x="646.5" y="367.5" as="sourcePoint" />
            <mxPoint x="643" y="336" as="targetPoint" />
            <Array as="points">
              <mxPoint x="630.5" y="357.5" />
              <mxPoint x="632.5" y="338.5" />
            </Array>
          </mxGeometry>
        </mxCell>
        <mxCell id="nDCd7p5NNrpLwYVH-uoT-62" value="ρ" style="edgeLabel;html=1;align=center;verticalAlign=middle;resizable=0;points=[];fontColor=#A680B8;labelBackgroundColor=none;fontFamily=Georgia;fontStyle=2" parent="nDCd7p5NNrpLwYVH-uoT-61" vertex="1" connectable="0">
          <mxGeometry x="0.4011" relative="1" as="geometry">
            <mxPoint x="-4" y="-5" as="offset" />
          </mxGeometry>
        </mxCell>
        <mxCell id="nDCd7p5NNrpLwYVH-uoT-63" value="" style="endArrow=classicThin;html=1;rounded=0;endFill=1;strokeColor=#00FF00;exitX=0.644;exitY=0.041;exitDx=0;exitDy=0;exitPerimeter=0;" parent="1" source="nDCd7p5NNrpLwYVH-uoT-27" edge="1">
          <mxGeometry width="50" height="50" relative="1" as="geometry">
            <mxPoint x="637" y="406" as="sourcePoint" />
            <mxPoint x="657" y="420" as="targetPoint" />
            <Array as="points" />
          </mxGeometry>
        </mxCell>
        <mxCell id="nDCd7p5NNrpLwYVH-uoT-64" value="" style="endArrow=classicThin;html=1;rounded=0;exitX=0.526;exitY=0.035;exitDx=0;exitDy=0;exitPerimeter=0;endFill=1;strokeColor=#0000FF;strokeWidth=1;" parent="1" source="nDCd7p5NNrpLwYVH-uoT-27" edge="1">
          <mxGeometry width="50" height="50" relative="1" as="geometry">
            <mxPoint x="637" y="406" as="sourcePoint" />
            <mxPoint x="637" y="400" as="targetPoint" />
          </mxGeometry>
        </mxCell>
        <mxCell id="nDCd7p5NNrpLwYVH-uoT-65" value="" style="endArrow=classicThin;html=1;rounded=0;exitX=0.366;exitY=0.015;exitDx=0;exitDy=0;exitPerimeter=0;endFill=1;strokeColor=#FF0000;" parent="1" source="nDCd7p5NNrpLwYVH-uoT-27" edge="1">
          <mxGeometry width="50" height="50" relative="1" as="geometry">
            <mxPoint x="637" y="406" as="sourcePoint" />
            <mxPoint x="623" y="434" as="targetPoint" />
          </mxGeometry>
        </mxCell>
        <mxCell id="nDCd7p5NNrpLwYVH-uoT-66" value="S&lt;sub&gt;3&lt;/sub&gt;" style="edgeLabel;html=1;align=center;verticalAlign=middle;resizable=0;points=[];labelBackgroundColor=none;fontFamily=Georgia;" parent="nDCd7p5NNrpLwYVH-uoT-65" vertex="1" connectable="0">
          <mxGeometry x="0.526" y="1" relative="1" as="geometry">
            <mxPoint x="-1" y="-18" as="offset" />
          </mxGeometry>
        </mxCell>
        <mxCell id="nDCd7p5NNrpLwYVH-uoT-67" value="" style="endArrow=classicThin;html=1;rounded=0;endFill=1;strokeColor=#00FF00;exitX=0.972;exitY=0.383;exitDx=0;exitDy=0;exitPerimeter=0;" parent="1" source="nDCd7p5NNrpLwYVH-uoT-35" edge="1">
          <mxGeometry width="50" height="50" relative="1" as="geometry">
            <mxPoint x="737" y="319.96000000000004" as="sourcePoint" />
            <mxPoint x="757" y="319.96000000000004" as="targetPoint" />
            <Array as="points" />
          </mxGeometry>
        </mxCell>
        <mxCell id="nDCd7p5NNrpLwYVH-uoT-68" value="S&lt;sub&gt;5&lt;/sub&gt;" style="edgeLabel;html=1;align=center;verticalAlign=middle;resizable=0;points=[];labelBackgroundColor=none;fontFamily=Georgia;" parent="nDCd7p5NNrpLwYVH-uoT-67" vertex="1" connectable="0">
          <mxGeometry x="0.5158" relative="1" as="geometry">
            <mxPoint x="-26" y="-7" as="offset" />
          </mxGeometry>
        </mxCell>
        <mxCell id="nDCd7p5NNrpLwYVH-uoT-69" value="" style="endArrow=classicThin;html=1;rounded=0;exitX=0.036;exitY=0.557;exitDx=0;exitDy=0;exitPerimeter=0;endFill=1;strokeColor=#0000FF;strokeWidth=1;" parent="1" source="nDCd7p5NNrpLwYVH-uoT-35" edge="1">
          <mxGeometry width="50" height="50" relative="1" as="geometry">
            <mxPoint x="736.96" y="320" as="sourcePoint" />
            <mxPoint x="736.96" y="300" as="targetPoint" />
          </mxGeometry>
        </mxCell>
        <mxCell id="nDCd7p5NNrpLwYVH-uoT-70" value="" style="endArrow=classicThin;html=1;rounded=0;exitX=0.5;exitY=0.5;exitDx=0;exitDy=0;exitPerimeter=0;endFill=1;strokeColor=#FF0000;" parent="1" source="nDCd7p5NNrpLwYVH-uoT-35" edge="1">
          <mxGeometry width="50" height="50" relative="1" as="geometry">
            <mxPoint x="737" y="320" as="sourcePoint" />
            <mxPoint x="723" y="334" as="targetPoint" />
          </mxGeometry>
        </mxCell>
        <mxCell id="nDCd7p5NNrpLwYVH-uoT-75" value="" style="curved=1;endArrow=none;html=1;rounded=0;startArrow=classicThin;startFill=1;endFill=0;strokeColor=#FF8000;" parent="1" edge="1">
          <mxGeometry width="50" height="50" relative="1" as="geometry">
            <mxPoint x="675" y="378" as="sourcePoint" />
            <mxPoint x="692" y="361" as="targetPoint" />
            <Array as="points">
              <mxPoint x="674" y="364.5" />
              <mxPoint x="682" y="358" />
              <mxPoint x="690" y="359" />
            </Array>
          </mxGeometry>
        </mxCell>
        <mxCell id="nDCd7p5NNrpLwYVH-uoT-76" value="β&lt;sub&gt;1&lt;/sub&gt;" style="edgeLabel;html=1;align=center;verticalAlign=middle;resizable=0;points=[];fontColor=#FF8000;labelBackgroundColor=none;fontFamily=Georgia;fontStyle=2" parent="nDCd7p5NNrpLwYVH-uoT-75" vertex="1" connectable="0">
          <mxGeometry x="0.7888" y="-1" relative="1" as="geometry">
            <mxPoint x="-27" y="8" as="offset" />
          </mxGeometry>
        </mxCell>
        <mxCell id="nDCd7p5NNrpLwYVH-uoT-77" value="" style="group" parent="1" vertex="1" connectable="0">
          <mxGeometry x="713" y="450" width="34" height="34" as="geometry" />
        </mxCell>
        <mxCell id="nDCd7p5NNrpLwYVH-uoT-78" value="" style="endArrow=classicThin;html=1;rounded=0;endFill=1;strokeColor=#00FF00;exitX=0.995;exitY=0.532;exitDx=0;exitDy=0;exitPerimeter=0;edgeStyle=elbowEdgeStyle;elbow=vertical;" parent="nDCd7p5NNrpLwYVH-uoT-77" edge="1">
          <mxGeometry width="50" height="50" relative="1" as="geometry">
            <mxPoint x="14" y="20" as="sourcePoint" />
            <mxPoint x="34" y="20" as="targetPoint" />
          </mxGeometry>
        </mxCell>
        <mxCell id="nDCd7p5NNrpLwYVH-uoT-79" value="𝑦" style="edgeLabel;html=1;align=center;verticalAlign=middle;resizable=0;points=[];fontColor=#00FF00;fontSize=16;labelBackgroundColor=none;fontFamily=Georgia;" parent="nDCd7p5NNrpLwYVH-uoT-78" vertex="1" connectable="0">
          <mxGeometry x="0.2752" y="1" relative="1" as="geometry">
            <mxPoint x="12" y="-2" as="offset" />
          </mxGeometry>
        </mxCell>
        <mxCell id="nDCd7p5NNrpLwYVH-uoT-80" value="" style="endArrow=classicThin;html=1;rounded=0;exitX=0.5;exitY=0.5;exitDx=0;exitDy=0;exitPerimeter=0;endFill=1;strokeColor=#0000FF;strokeWidth=1;" parent="nDCd7p5NNrpLwYVH-uoT-77" edge="1">
          <mxGeometry width="50" height="50" relative="1" as="geometry">
            <mxPoint x="14" y="20" as="sourcePoint" />
            <mxPoint x="14" as="targetPoint" />
          </mxGeometry>
        </mxCell>
        <mxCell id="nDCd7p5NNrpLwYVH-uoT-81" value="𝑧" style="edgeLabel;html=1;align=center;verticalAlign=middle;resizable=0;points=[];fontColor=#0000FF;fontSize=16;labelBackgroundColor=none;fontFamily=Georgia;" parent="nDCd7p5NNrpLwYVH-uoT-80" vertex="1" connectable="0">
          <mxGeometry x="0.3139" relative="1" as="geometry">
            <mxPoint x="-8" y="-6" as="offset" />
          </mxGeometry>
        </mxCell>
        <mxCell id="nDCd7p5NNrpLwYVH-uoT-82" value="" style="endArrow=classicThin;html=1;rounded=0;exitX=0.963;exitY=0.684;exitDx=0;exitDy=0;exitPerimeter=0;endFill=1;strokeColor=#FF0000;" parent="nDCd7p5NNrpLwYVH-uoT-77" edge="1">
          <mxGeometry width="50" height="50" relative="1" as="geometry">
            <mxPoint x="14" y="20" as="sourcePoint" />
            <mxPoint y="34" as="targetPoint" />
          </mxGeometry>
        </mxCell>
        <mxCell id="nDCd7p5NNrpLwYVH-uoT-83" value="𝑥" style="edgeLabel;html=1;align=center;verticalAlign=middle;resizable=0;points=[];fontColor=#FF0000;fontSize=16;labelBackgroundColor=none;fontFamily=Georgia;" parent="nDCd7p5NNrpLwYVH-uoT-82" vertex="1" connectable="0">
          <mxGeometry x="-0.2946" y="1" relative="1" as="geometry">
            <mxPoint x="-15" as="offset" />
          </mxGeometry>
        </mxCell>
        <mxCell id="0BWxu7W9NtxuwsYa4GN4-17" value="" style="endArrow=classicThin;html=1;rounded=0;exitX=0.183;exitY=0.019;exitDx=0;exitDy=0;exitPerimeter=0;endFill=1;strokeColor=#0000FF;strokeWidth=1;" edge="1" parent="1">
          <mxGeometry width="50" height="50" relative="1" as="geometry">
            <mxPoint x="687" y="370" as="sourcePoint" />
            <mxPoint x="712" y="370" as="targetPoint" />
          </mxGeometry>
        </mxCell>
        <mxCell id="0BWxu7W9NtxuwsYa4GN4-18" value="" style="endArrow=classicThin;html=1;rounded=0;exitX=0.392;exitY=0.504;exitDx=0;exitDy=0;exitPerimeter=0;endFill=1;strokeColor=#00FF00;" edge="1" parent="1">
          <mxGeometry width="50" height="50" relative="1" as="geometry">
            <mxPoint x="687" y="370" as="sourcePoint" />
            <mxPoint x="695" y="349" as="targetPoint" />
          </mxGeometry>
        </mxCell>
        <mxCell id="0BWxu7W9NtxuwsYa4GN4-19" value="" style="endArrow=classicThin;html=1;rounded=0;exitX=0.075;exitY=0.388;exitDx=0;exitDy=0;exitPerimeter=0;endFill=1;strokeColor=#FF0000;" edge="1" parent="1">
          <mxGeometry width="50" height="50" relative="1" as="geometry">
            <mxPoint x="687" y="370" as="sourcePoint" />
            <mxPoint x="707" y="378" as="targetPoint" />
          </mxGeometry>
        </mxCell>
        <mxCell id="0BWxu7W9NtxuwsYa4GN4-20" value="&lt;font face=&quot;Georgia&quot;&gt;B&lt;sub&gt;1&lt;/sub&gt;&lt;/font&gt;" style="edgeLabel;html=1;align=center;verticalAlign=middle;resizable=0;points=[];labelBackgroundColor=none;" vertex="1" connectable="0" parent="0BWxu7W9NtxuwsYa4GN4-19">
          <mxGeometry x="-0.1665" relative="1" as="geometry">
            <mxPoint x="-5" y="10" as="offset" />
          </mxGeometry>
        </mxCell>
        <mxCell id="0BWxu7W9NtxuwsYa4GN4-5" value="Untitled Layer" parent="0" visible="0" />
        <mxCell id="0BWxu7W9NtxuwsYa4GN4-6" value="" style="endArrow=classicThin;html=1;rounded=0;exitX=0.183;exitY=0.019;exitDx=0;exitDy=0;exitPerimeter=0;endFill=1;strokeColor=#0000FF;strokeWidth=1;" edge="1" parent="0BWxu7W9NtxuwsYa4GN4-5">
          <mxGeometry width="50" height="50" relative="1" as="geometry">
            <mxPoint x="687" y="370" as="sourcePoint" />
            <mxPoint x="712" y="370" as="targetPoint" />
          </mxGeometry>
        </mxCell>
        <mxCell id="0BWxu7W9NtxuwsYa4GN4-7" value="" style="endArrow=classicThin;html=1;rounded=0;exitX=0.392;exitY=0.504;exitDx=0;exitDy=0;exitPerimeter=0;endFill=1;strokeColor=#00FF00;" edge="1" parent="0BWxu7W9NtxuwsYa4GN4-5">
          <mxGeometry width="50" height="50" relative="1" as="geometry">
            <mxPoint x="687" y="370" as="sourcePoint" />
            <mxPoint x="695" y="349" as="targetPoint" />
          </mxGeometry>
        </mxCell>
        <mxCell id="0BWxu7W9NtxuwsYa4GN4-8" value="" style="endArrow=classicThin;html=1;rounded=0;exitX=0.075;exitY=0.388;exitDx=0;exitDy=0;exitPerimeter=0;endFill=1;strokeColor=#FF0000;" edge="1" parent="0BWxu7W9NtxuwsYa4GN4-5">
          <mxGeometry width="50" height="50" relative="1" as="geometry">
            <mxPoint x="687" y="370" as="sourcePoint" />
            <mxPoint x="707" y="378" as="targetPoint" />
          </mxGeometry>
        </mxCell>
        <mxCell id="0BWxu7W9NtxuwsYa4GN4-10" value="" style="whiteSpace=wrap;html=1;fillColor=none;rotation=20;" vertex="1" parent="0BWxu7W9NtxuwsYa4GN4-5">
          <mxGeometry x="689" y="362" width="10" height="10" as="geometry" />
        </mxCell>
      </root>
    </mxGraphModel>
  </diagram>
</mxfile>
